<?xml version="1.0" encoding="UTF-8" standalone="no"?>
<!-- Created with Inkscape (http://www.inkscape.org/) -->

<svg
   xmlns:dc="http://purl.org/dc/elements/1.1/"
   xmlns:cc="http://creativecommons.org/ns#"
   xmlns:rdf="http://www.w3.org/1999/02/22-rdf-syntax-ns#"
   xmlns:svg="http://www.w3.org/2000/svg"
   xmlns="http://www.w3.org/2000/svg"
   xmlns:sodipodi="http://sodipodi.sourceforge.net/DTD/sodipodi-0.dtd"
   xmlns:inkscape="http://www.inkscape.org/namespaces/inkscape"
   width="524.40942"
   height="372.04724"
   id="svg5203"
   version="1.1"
   inkscape:version="0.48.4 r9939"
   sodipodi:docname="fom_clone.svg">
  <defs
     id="defs5205">
    <marker
       inkscape:stockid="Arrow1Send"
       orient="auto"
       refY="0.0"
       refX="0.0"
       id="Arrow1Send"
       style="overflow:visible;">
      <path
         id="path5941"
         d="M 0.0,0.0 L 5.0,-5.0 L -12.5,0.0 L 5.0,5.0 L 0.0,0.0 z "
         style="fill-rule:evenodd;stroke:#000000;stroke-width:1.0pt;"
         transform="scale(0.2) rotate(180) translate(6,0)" />
    </marker>
    <marker
       inkscape:stockid="Arrow1Lend"
       orient="auto"
       refY="0.0"
       refX="0.0"
       id="Arrow1Lend"
       style="overflow:visible;">
      <path
         id="path5929"
         d="M 0.0,0.0 L 5.0,-5.0 L -12.5,0.0 L 5.0,5.0 L 0.0,0.0 z "
         style="fill-rule:evenodd;stroke:#000000;stroke-width:1.0pt;"
         transform="scale(0.8) rotate(180) translate(12.5,0)" />
    </marker>
    <marker
       inkscape:stockid="Arrow1Send"
       orient="auto"
       refY="0"
       refX="0"
       id="Arrow1Send-7"
       style="overflow:visible">
      <path
         inkscape:connector-curvature="0"
         id="path5941-4"
         d="M 0,0 5,-5 -12.5,0 5,5 0,0 z"
         style="fill-rule:evenodd;stroke:#000000;stroke-width:1pt"
         transform="matrix(-0.2,0,0,-0.2,-1.2,0)" />
    </marker>
  </defs>
  <sodipodi:namedview
     id="base"
     pagecolor="#ffffff"
     bordercolor="#666666"
     borderopacity="1.0"
     inkscape:pageopacity="0.0"
     inkscape:pageshadow="2"
     inkscape:zoom="0.7"
     inkscape:cx="287.33354"
     inkscape:cy="-23.267159"
     inkscape:document-units="px"
     inkscape:current-layer="g7003"
     showgrid="false"
     inkscape:window-width="1280"
     inkscape:window-height="969"
     inkscape:window-x="0"
     inkscape:window-y="36"
     inkscape:window-maximized="0"
     inkscape:object-nodes="true">
    <inkscape:grid
       type="xygrid"
       id="grid5211"
       empspacing="5"
       visible="true"
       enabled="true"
       snapvisiblegridlinesonly="true" />
  </sodipodi:namedview>
  <metadata
     id="metadata5208">
    <rdf:RDF>
      <cc:Work
         rdf:about="">
        <dc:format>image/svg+xml</dc:format>
        <dc:type
           rdf:resource="http://purl.org/dc/dcmitype/StillImage" />
        <dc:title />
      </cc:Work>
    </rdf:RDF>
  </metadata>
  <g
     inkscape:label="Ebene 1"
     inkscape:groupmode="layer"
     id="layer1"
     transform="translate(0,-680.31492)">
    <g
       id="g7576"
       transform="translate(282.10937,553.97636)">
      <path
         transform="matrix(0.82142857,0,0,0.82142857,23.214286,30.778961)"
         d="m 200,172.36218 c 0,38.65994 -31.34007,70 -70,70 -38.659932,0 -70,-31.34006 -70,-70 0,-38.65993 31.340068,-70 70,-70 38.65993,0 70,31.34007 70,70 z"
         sodipodi:ry="70"
         sodipodi:rx="70"
         sodipodi:cy="172.36218"
         sodipodi:cx="130"
         id="path7014"
         style="fill:none;stroke:#009682;stroke-width:7.30434799;stroke-opacity:0.78431373"
         sodipodi:type="arc" />
      <text
         sodipodi:linespacing="125%"
         id="text7016"
         y="186.94226"
         x="102.64648"
         style="font-size:40px;font-style:normal;font-weight:normal;line-height:125%;letter-spacing:0px;word-spacing:0px;fill:#009682;fill-opacity:0.78431373;stroke:none;font-family:Sans"
         xml:space="preserve"><tspan
           y="186.94226"
           x="102.64648"
           id="tspan7018"
           sodipodi:role="line">PR</tspan></text>
    </g>
    <g
       transform="translate(-37.890625,693.97636)"
       id="g7675">
      <path
         sodipodi:type="arc"
         style="fill:none;stroke:#009682;stroke-width:7.30434799;stroke-opacity:0.78431373"
         id="path7677"
         sodipodi:cx="130"
         sodipodi:cy="172.36218"
         sodipodi:rx="70"
         sodipodi:ry="70"
         d="m 200,172.36218 c 0,38.65994 -31.34007,70 -70,70 -38.659932,0 -70,-31.34006 -70,-70 0,-38.65993 31.340068,-70 70,-70 38.65993,0 70,31.34007 70,70 z"
         transform="matrix(0.82142857,0,0,0.82142857,23.214286,30.778961)" />
      <text
         xml:space="preserve"
         style="font-size:40px;font-style:normal;font-weight:normal;line-height:125%;letter-spacing:0px;word-spacing:0px;fill:#009682;fill-opacity:0.78431373;stroke:none;font-family:Sans"
         x="97.890625"
         y="186.94226"
         id="text7679"
         sodipodi:linespacing="125%"><tspan
           sodipodi:role="line"
           id="tspan7681"
           x="97.890625"
           y="186.94226">MC</tspan></text>
    </g>
    <g
       id="g7003"
       transform="translate(5.714286,-107.85714)">
      <g
         transform="matrix(-0.94261996,0.33386765,-0.33386765,-0.94261996,753.94615,1577.7279)"
         id="g6926">
        <path
           sodipodi:nodetypes="czc"
           transform="translate(0,680.31492)"
           inkscape:connector-curvature="0"
           id="path6928"
           d="m 150,132.04724 c 0,0 25.3479,-20 100,-20 74.6521,0 100,20 100,20"
           style="fill:none;stroke:#000000;stroke-width:6;stroke-linecap:butt;stroke-linejoin:miter;stroke-opacity:1;marker-end:none" />
        <path
           style="fill:none;stroke:#000000;stroke-width:6;stroke-linecap:butt;stroke-linejoin:miter;stroke-opacity:1;marker-end:url(#Arrow1Send)"
           d="m 341,127.04724 9,5"
           id="path6930"
           inkscape:connector-curvature="0"
           transform="translate(0,680.31492)"
           sodipodi:nodetypes="cc" />
      </g>
      <text
         xml:space="preserve"
         style="font-size:40px;font-style:normal;font-weight:normal;line-height:125%;letter-spacing:0px;word-spacing:0px;fill:#000000;fill-opacity:1;stroke:none;font-family:Sans"
         x="227.6553"
         y="964.36218"
         id="text6992"
         sodipodi:linespacing="125%"><tspan
           sodipodi:role="line"
           id="tspan6994"
           x="227.6553"
           y="964.36218">84%</tspan></text>
    </g>
    <g
       transform="translate(282.10937,833.97636)"
       id="g7581">
      <path
         sodipodi:type="arc"
         style="fill:none;stroke:#4663aa;stroke-width:7.30434799;stroke-opacity:0.78431373"
         id="path7583"
         sodipodi:cx="130"
         sodipodi:cy="172.36218"
         sodipodi:rx="70"
         sodipodi:ry="70"
         d="m 200,172.36218 c 0,38.65994 -31.34007,70 -70,70 -38.659932,0 -70,-31.34006 -70,-70 0,-38.65993 31.340068,-70 70,-70 38.65993,0 70,31.34007 70,70 z"
         transform="matrix(0.82142857,0,0,0.82142857,23.214286,30.778961)" />
      <text
         xml:space="preserve"
         style="font-size:40px;font-style:normal;font-weight:normal;line-height:125%;letter-spacing:0px;word-spacing:0px;fill:#4663aa;fill-opacity:0.78431373;stroke:none;font-family:Sans"
         x="102.64648"
         y="186.94226"
         id="text7585"
         sodipodi:linespacing="125%"><tspan
           sodipodi:role="line"
           id="tspan7587"
           x="102.64648"
           y="186.94226">PR</tspan></text>
    </g>
    <g
       id="g3497">
      <g
         transform="translate(-16.428571,-24.285714)"
         id="g6996">
        <text
           xml:space="preserve"
           style="font-size:40px;font-style:normal;font-weight:normal;line-height:125%;letter-spacing:0px;word-spacing:0px;fill:#000000;fill-opacity:1;stroke:none;font-family:Sans"
           x="185.51245"
           y="753.07642"
           id="text6988"
           sodipodi:linespacing="125%"><tspan
             sodipodi:role="line"
             id="tspan6990"
             x="185.51245"
             y="753.07642">70%</tspan></text>
      </g>
      <g
         transform="matrix(0.94261996,-0.33386765,0.33386765,0.94261996,-268.1688,83.723066)"
         id="g3461">
        <path
           sodipodi:nodetypes="czc"
           transform="translate(0,680.31492)"
           inkscape:connector-curvature="0"
           id="path3463"
           d="m 150,132.04724 c 0,0 25.3479,-20 100,-20 74.6521,0 100,20 100,20"
           style="fill:none;stroke:#000000;stroke-width:6;stroke-linecap:butt;stroke-linejoin:miter;stroke-opacity:1;marker-end:none" />
        <path
           style="fill:none;stroke:#000000;stroke-width:6;stroke-linecap:butt;stroke-linejoin:miter;stroke-opacity:1;marker-end:url(#Arrow1Send)"
           d="m 341,127.04724 9,5"
           id="path3465"
           inkscape:connector-curvature="0"
           transform="translate(0,680.31492)"
           sodipodi:nodetypes="cc" />
      </g>
    </g>
    <g
       transform="matrix(-1,0,0,1,485.77735,72.14286)"
       id="g3505">
      <g
         id="g3507"
         transform="matrix(-0.94261996,0.33386765,-0.33386765,-0.94261996,753.94615,1577.7279)">
        <path
           style="fill:none;stroke:#000000;stroke-width:6;stroke-linecap:butt;stroke-linejoin:miter;stroke-opacity:1;marker-end:none"
           d="m 150,132.04724 c 0,0 25.3479,-20 100,-20 74.6521,0 100,20 100,20"
           id="path3509"
           inkscape:connector-curvature="0"
           transform="translate(0,680.31492)"
           sodipodi:nodetypes="czc" />
        <path
           sodipodi:nodetypes="cc"
           transform="translate(0,680.31492)"
           inkscape:connector-curvature="0"
           id="path3511"
           d="m 341,127.04724 9,5"
           style="fill:none;stroke:#000000;stroke-width:6;stroke-linecap:butt;stroke-linejoin:miter;stroke-opacity:1;marker-end:url(#Arrow1Send)" />
      </g>
      <text
         sodipodi:linespacing="125%"
         id="text3513"
         y="964.36218"
         x="-317.10843"
         style="font-size:40px;font-style:normal;font-weight:normal;line-height:125%;letter-spacing:0px;word-spacing:0px;fill:#000000;fill-opacity:1;stroke:none;font-family:Sans"
         xml:space="preserve"
         transform="scale(-1,1)"><tspan
           y="964.36218"
           x="-317.10843"
           id="tspan3515"
           sodipodi:role="line">30%</tspan></text>
    </g>
    <g
       id="g3517"
       transform="matrix(-1,0,0,1,491.49164,180)">
      <g
         id="g3519"
         transform="matrix(-1,0,0,1,444.61586,-24.285714)">
        <text
           sodipodi:linespacing="125%"
           id="text3521"
           y="753.07642"
           x="185.51245"
           style="font-size:40px;font-style:normal;font-weight:normal;line-height:125%;letter-spacing:0px;word-spacing:0px;fill:#000000;fill-opacity:1;stroke:none;font-family:Sans"
           xml:space="preserve"><tspan
             y="753.07642"
             x="185.51245"
             id="tspan3523"
             sodipodi:role="line">71%</tspan></text>
      </g>
      <g
         id="g3525"
         transform="matrix(0.94261996,-0.33386765,0.33386765,0.94261996,-268.1688,83.723066)">
        <path
           style="fill:none;stroke:#000000;stroke-width:6;stroke-linecap:butt;stroke-linejoin:miter;stroke-opacity:1;marker-end:none"
           d="m 150,132.04724 c 0,0 25.3479,-20 100,-20 74.6521,0 100,20 100,20"
           id="path3527"
           inkscape:connector-curvature="0"
           transform="translate(0,680.31492)"
           sodipodi:nodetypes="czc" />
        <path
           sodipodi:nodetypes="cc"
           transform="translate(0,680.31492)"
           inkscape:connector-curvature="0"
           id="path3529"
           d="m 341,127.04724 9,5"
           style="fill:none;stroke:#000000;stroke-width:6;stroke-linecap:butt;stroke-linejoin:miter;stroke-opacity:1;marker-end:url(#Arrow1Send)" />
      </g>
    </g>
  </g>
</svg>
